<svg height="480pt" viewBox="-24 0 480 480.05607" width="480pt" xmlns="http://www.w3.org/2000/svg"><path d="m271.714844 358.816406c7.015625-2.410156 13.066406-6.914062 17.464844-12.726562.054687 0 .105468.015625.152343.015625 15.265625.023437 28.367188-9.25 33.96875-22.472657 16.703125-2.023437 29.832031-15.113281 31.917969-31.808593 13.25-5.550781 22.5625-18.625 22.59375-33.886719.007812-2.386719-.265625-4.699219-.6875-6.953125 9.320312-6.664063 15.445312-17.496094 15.472656-29.824219.007813-4.304687-.867187-8.375-2.21875-12.214844 5.914063-6.519531 9.625-15.082031 9.640625-24.570312.007813-6.734375-1.917969-12.96875-5.070312-18.40625 3.167969-5.425781 5.125-11.65625 5.136719-18.394531.023437-12.324219-6.074219-23.183594-15.371094-29.878907.433594-2.253906.714844-4.566406.714844-6.941406.023437-15.265625-9.25-28.371094-22.472657-33.96875-2.023437-16.707031-15.113281-29.832031-31.808593-31.921875-5.550782-13.246093-18.625-22.566406-33.886719-22.589843-.058594 0-.105469.015624-.152344.015624-6.707031-8.914062-17.257813-14.769531-29.265625-14.785156-4.304688-.007812-8.375.863282-12.214844 2.214844-6.519531-5.910156-15.082031-9.6210938-24.570312-9.640625-8.320313-.015625-15.917969 2.84375-22.09375 7.488281-6.160156-4.671875-13.746094-7.550781-22.066406-7.566406-12.328126-.0234375-23.183594 6.070312-29.878907 15.367188-2.253906-.429688-4.566406-.710938-6.945312-.710938-15.261719-.023438-28.367188 9.246094-33.964844 22.472656-16.707031 2.023438-29.832031 15.109375-31.921875 31.808594-13.246094 5.550781-22.566406 18.621094-22.589844 33.886719 0 1.007812.214844 1.960937.285156 2.945312-13.160156 5.589844-22.40625 18.613281-22.429687 33.816407-.007813 6.269531 1.695313 12.09375 4.453125 17.261718-7.253906 6.710938-11.871094 16.222656-11.886719 26.878906s4.570313 20.195313 11.800781 26.921876c-2.777343 5.160156-4.503906 10.976562-4.511718 17.246093-.023438 12.328125 6.070312 23.183594 15.367187 29.882813-.433593 2.253906-.710937 4.566406-.710937 6.941406-.03125 18.035156 12.933594 32.992188 30.046875 36.175781 2.855469 15.664063 15.625 27.730469 31.59375 29.722657 5.550781 13.246093 18.621093 22.566406 33.886719 22.589843 2.382812.007813 4.695312-.261719 6.953124-.6875 1 1.402344 2.09375 2.738281 3.277344 3.984375" fill="#736357"/><path d="m160.027344 312.054688h112v128h-112zm0 0" fill="#fdd089"/><path d="m432.027344 480.054688-42.109375-72.183594c-8.601563-14.75-24.386719-23.816406-41.457031-23.816406h-76.433594l-56 56-56-56h-76.429688c-17.074218 0-32.859375 9.066406-41.464844 23.816406l-42.1054682 72.183594zm0 0" fill="#c1272d"/><path d="m152.027344 440.054688h128v32h-128zm0 0" fill="#87660d"/><path d="m152.027344 440.054688h96v32h-96zm0 0" fill="#b48811"/><g fill="#fdd089"><path d="m120.027344 192.054688h-8c-17.671875 0-32 14.328124-32 32 0 17.671874 14.328125 32 32 32h8"/><path d="m312.027344 192.054688h8c17.671875 0 32 14.328124 32 32 0 17.671874-14.328125 32-32 32h-8"/><path d="m288.027344 112.054688h-144l-16 16v24l-16 16v56c0 57.441406 46.5625 104 104 104 57.441406 0 104-46.558594 104-104v-56l-16-16v-24zm0 0"/></g><path d="m320.027344 240.054688h-72c-8.839844 0-16-7.160157-16-16 0-8.839844-7.160156-16-16-16s-16 7.160156-16 16c0 8.839843-7.160156 16-16 16h-72v-64h208zm0 0" fill="#666"/><path d="m360.027344 440.054688h16v40h-16zm0 0" fill="#611417"/><path d="m56.027344 440.054688h16v40h-16zm0 0" fill="#611417"/><path d="m232.027344 296.054688h-32c-17.648438 0-32-14.351563-32-32h16c0 8.824218 7.175781 16 16 16h32c8.824218 0 16-7.175782 16-16h16c0 17.648437-14.351563 32-32 32zm0 0" fill="#4d4d4d"/></svg>